<?xml version="1.0" standalone="no"?><!DOCTYPE svg PUBLIC "-//W3C//DTD SVG 1.1//EN" "http://www.w3.org/Graphics/SVG/1.1/DTD/svg11.dtd"><svg t="1612148544450" class="icon" viewBox="0 0 1024 1024" version="1.1" xmlns="http://www.w3.org/2000/svg" p-id="1534" xmlns:xlink="http://www.w3.org/1999/xlink" width="200" height="200"><defs><style type="text/css"></style></defs><path d="M638.787175 160.588481a42.539995 42.539995 0 0 0 25.098598 38.711395 385.625054 385.625054 0 1 1-304.160965 0 42.539995 42.539995 0 0 0 24.885898-38.711395 42.539995 42.539995 0 0 0-59.768693-39.136795 470.705044 470.705044 0 1 0 374.564655 0 42.539995 42.539995 0 0 0-60.619493 39.136795z" fill="#ffffff" p-id="1535"></path><path d="M468.627196 0m42.539995 0l0 0q42.539995 0 42.539995 42.539995l0 489.209942q0 42.539995-42.539995 42.539995l0 0q-42.539995 0-42.539995-42.539995l0-489.209942q0-42.539995 42.539995-42.539995Z" fill="#ffffff" p-id="1536"></path></svg>