<?xml version="1.0" standalone="no"?><!DOCTYPE svg PUBLIC "-//W3C//DTD SVG 1.1//EN" "http://www.w3.org/Graphics/SVG/1.1/DTD/svg11.dtd"><svg t="1606459780786" class="icon" viewBox="0 0 1024 1024" version="1.1" xmlns="http://www.w3.org/2000/svg" p-id="10065" xmlns:xlink="http://www.w3.org/1999/xlink" width="64" height="64"><defs><style type="text/css"></style></defs><path d="M352.283392 301.623595c0 15.267728 11.550057 27.554566 25.712615 27.554566l0.518816 0c5.308913 72.297606 62.143339 144.651494 131.582851 144.651494s126.184911-72.353888 131.571594-144.651494l0.441045 0c14.335497 0 25.801642-12.286838 25.801642-27.554566 0-11.047614-6.257517-20.632923-15.290241-24.89704 5.213745-16.295128 8.083096-33.634028 8.083096-51.737338 0-88.503706-67.440995-160.169933-150.607136-160.169933-83.256192 0-150.702304 71.66725-150.702304 160.169933 0 18.10331 2.874467 35.44221 8.089235 51.737338C358.535793 280.990672 352.283392 290.575981 352.283392 301.623595L352.283392 301.623595 352.283392 301.623595zM190.024891 730.379683l640.055514 0c7.732102 0 14.07353-6.28003 14.07353-14.106276l0-50.263777c0-3.746324-1.557472-7.396457-4.26514-10.015098-61.518099-59.932997-136.607284-102.085026-217.422891-122.288161-1.998517-1.155313-4.259-1.741667-6.693446-1.741667l-7.296173 0c-2.355651 0-4.611018 0.5137-6.609535 1.641383-24.333198 13.062504-57.873082 20.649296-91.769077 20.649296-33.986045 0-67.357084-7.586792-91.774193-20.649296-2.082428-1.127683-4.337795-1.641383-6.598278-1.641383l-5.392824 0c-1.043772 0-2.177596 0.066515-3.210112 0.340761-82.83152 19.689435-159.996994 62.355163-222.826971 123.689067-2.685155 2.617617-4.26514 6.268774-4.26514 10.015098l0 50.252521C176.030156 724.099652 182.293813 730.379683 190.024891 730.379683L190.024891 730.379683 190.024891 730.379683zM876.749308 902.161071l-733.393319 0c-13.207813 0-23.982204 12.459776-23.982204 27.956725s10.774391 27.872814 23.982204 27.872814l733.393319 0c13.286608 0 24.160259-12.375865 24.160259-27.872814S890.035916 902.161071 876.749308 902.161071L876.749308 902.161071 876.749308 902.161071z" p-id="10066" fill="#ffffff"></path><path d="M231.022631 790.518365l558.233997 0 0 55.813167-558.233997 0L231.022631 790.518365z" p-id="10067" fill="#ffffff"></path></svg>