<?xml version="1.0" standalone="no"?><!DOCTYPE svg PUBLIC "-//W3C//DTD SVG 1.1//EN" "http://www.w3.org/Graphics/SVG/1.1/DTD/svg11.dtd"><svg t="1602065075464" class="icon" viewBox="0 0 1024 1024" version="1.1" xmlns="http://www.w3.org/2000/svg" p-id="1264" xmlns:xlink="http://www.w3.org/1999/xlink" width="64" height="64"><defs><style type="text/css"></style></defs><path d="M930.702222 889.742222L786.204444 745.244444c59.164444-69.404444 95.573333-158.151111 95.573334-256C881.777778 273.066667 705.422222 96.711111 489.244444 96.711111S96.711111 273.066667 96.711111 489.244444 273.066667 881.777778 489.244444 881.777778c97.848889 0 187.733333-36.408889 256-95.573334l144.497778 144.497778c5.688889 5.688889 12.515556 7.964444 20.48 7.964445s14.791111-2.275556 20.48-7.964445c10.24-11.377778 10.24-29.582222 0-40.96zM153.6 489.244444c0-185.457778 150.186667-335.644444 335.644444-335.644444S824.888889 303.786667 824.888889 489.244444 674.702222 824.888889 489.244444 824.888889 153.6 674.702222 153.6 489.244444z" p-id="1265" fill="#8a8a8a"></path></svg>