<svg xmlns="http://www.w3.org/2000/svg" width="16.62" height="14.313" viewBox="0 0 16.62 14.313">
  <defs>
    <style>
      .cls-1 {
        fill-rule: evenodd;
      }
    </style>
  </defs>
  <path id="M" class="cls-1" d="M1680.06,939.161a1.48,1.48,0,0,0-.08-0.49,0.887,0.887,0,0,0-.56-0.589,1.47,1.47,0,0,0-.51-0.078h-1.95a2.85,2.85,0,0,0-.72.083,1.329,1.329,0,0,0-.53.281,1.958,1.958,0,0,0-.4.518,5.258,5.258,0,0,0-.31.782l-3.19,8.47h-0.05l-3.08-8.492a3.586,3.586,0,0,0-.31-0.777,1.554,1.554,0,0,0-.44-0.507,1.748,1.748,0,0,0-.63-0.275,3.949,3.949,0,0,0-.87-0.083h-1.89a1.093,1.093,0,0,0-.8.3,1.194,1.194,0,0,0-.29.859v12.7a0.345,0.345,0,0,0,.06.2,0.409,0.409,0,0,0,.22.143,2.092,2.092,0,0,0,.42.088,6.717,6.717,0,0,0,1.33,0,2.258,2.258,0,0,0,.42-0.088,0.442,0.442,0,0,0,.23-0.143,0.345,0.345,0,0,0,.06-0.2v-11.6h0.02l3.99,11.588a0.387,0.387,0,0,0,.13.209,0.884,0.884,0,0,0,.27.148,1.88,1.88,0,0,0,.44.089,6.14,6.14,0,0,0,.63.027c0.25,0,.47,0,0.64-0.016a1.865,1.865,0,0,0,.44-0.072,0.759,0.759,0,0,0,.27-0.149,0.6,0.6,0,0,0,.14-0.236l4.13-11.588h0.02v11.6a0.355,0.355,0,0,0,.07.2,0.453,0.453,0,0,0,.22.143,1.946,1.946,0,0,0,.42.088,5.335,5.335,0,0,0,.66.033,5.631,5.631,0,0,0,.67-0.033,1.946,1.946,0,0,0,.42-0.088,0.409,0.409,0,0,0,.22-0.143,0.293,0.293,0,0,0,.07-0.2v-12.7Z" transform="translate(-1663.44 -938)"/>
</svg>
